<svg width="737" height="611" viewBox="0 0 737 611" fill="none" xmlns="http://www.w3.org/2000/svg">
<path d="M525.844 429.632L525.758 429.598L525.669 429.572L519.461 427.784L518.907 429.706L506.492 426.128L507.045 424.206L494.63 420.629L494.076 422.551L481.66 418.973L482.214 417.051L469.798 413.474L469.244 415.396L456.829 411.818L457.382 409.896L451.174 408.108L451.044 408.07L450.91 408.051L444.651 407.134L444.361 409.113L431.843 407.281L432.132 405.302L425.576 404.343V393.078C430.092 392.056 434.49 390.899 438.77 389.611L438.193 387.696C443.185 386.193 448.011 384.509 452.672 382.648L453.413 384.506C458.299 382.555 463.009 380.411 467.541 378.076L466.625 376.298C471.236 373.923 475.659 371.35 479.895 368.582L480.989 370.256C485.366 367.396 489.548 364.331 493.534 361.064L492.266 359.517C496.234 356.265 500.004 352.812 503.578 349.162L505.007 350.561C508.628 346.863 512.05 342.965 515.274 338.873L513.702 337.636C516.844 333.647 519.795 329.47 522.557 325.11L524.247 326.18C526.986 321.854 529.539 317.353 531.908 312.678L530.124 311.774C532.403 307.277 534.511 302.616 536.447 297.795L538.303 298.54C540.2 293.816 541.934 288.943 543.505 283.923L541.596 283.325C543.096 278.536 544.446 273.609 545.648 268.548L547.594 269.011C548.767 264.074 549.8 259.013 550.693 253.831L548.722 253.491C549.573 248.548 550.297 243.492 550.894 238.325L552.881 238.555C553.463 233.52 553.924 228.381 554.266 223.143L552.27 223.013C552.597 218.004 552.814 212.901 552.921 207.705L554.921 207.747C554.974 205.186 555 202.604 555 200C555 197.4 554.974 194.823 554.921 192.267L552.921 192.309C552.814 187.122 552.598 182.029 552.272 177.031L554.268 176.901C553.927 171.671 553.467 166.542 552.886 161.518L550.899 161.747C550.303 156.588 549.58 151.542 548.73 146.61L550.701 146.27C549.808 141.096 548.776 136.045 547.604 131.119L545.658 131.582C544.455 126.531 543.104 121.615 541.605 116.837L543.513 116.238C541.94 111.227 540.204 106.364 538.304 101.652L536.449 102.399C534.51 97.5892 532.399 92.9408 530.115 88.4575L531.898 87.5498C529.523 82.8882 526.964 78.4005 524.218 74.0907L522.531 75.1653C519.763 70.8204 516.805 66.6609 513.655 62.6907L515.222 61.4477C511.991 57.3747 508.561 53.4971 504.931 49.8193L503.507 51.2242C499.926 47.596 496.148 44.1657 492.173 40.9372L493.434 39.3847C489.442 36.1425 485.255 33.1016 480.871 30.2658L479.785 31.945C475.546 29.2026 471.12 26.6541 466.507 24.3029L467.415 22.521C462.882 20.2106 458.173 18.0895 453.287 16.1607L452.553 18.021C447.895 16.1823 443.072 14.5194 438.084 13.0355L438.655 11.1185C433.8 9.67406 428.793 8.39808 423.633 7.29282L423.214 9.24846C418.34 8.2042 413.325 7.31324 408.171 6.57785L408.453 4.5979C403.456 3.88496 398.33 3.31735 393.075 2.89681L392.916 4.89044C387.946 4.49265 382.857 4.22727 377.651 4.09605L377.701 2.09669C375.146 2.03229 372.563 2 369.952 2C367.322 2 364.719 2.03275 362.143 2.09806L362.194 4.09741C356.95 4.23034 351.819 4.49901 346.801 4.90166L346.641 2.90807C341.353 3.33238 336.188 3.90456 331.145 4.62281L331.427 6.60282C326.236 7.34223 321.179 8.23739 316.255 9.28603L315.839 7.32991C310.646 8.43593 305.599 9.71168 300.697 11.1549L301.262 13.0734C296.235 14.5535 291.366 16.2106 286.656 18.042L285.931 16.1779C281.002 18.0941 276.242 20.1998 271.652 22.4921L272.546 24.2813C267.879 26.6121 263.392 29.1369 259.085 31.8525L258.018 30.1608C253.569 32.9663 249.309 35.9734 245.239 39.1784L246.476 40.7497C242.418 43.9453 238.552 47.3397 234.879 50.929L233.481 49.4986C229.753 53.1418 226.222 56.9827 222.887 61.0171L224.429 62.2912C221.171 66.2334 218.103 70.3635 215.227 74.6778L213.563 73.5683C210.701 77.8602 208.027 82.3301 205.542 86.9742L207.305 87.9179C204.908 92.3961 202.687 97.0401 200.643 101.847L198.803 101.064C196.797 105.78 194.96 110.649 193.293 115.667L195.191 116.297C193.597 121.094 192.159 126.03 190.877 131.103L188.938 130.613C187.685 135.567 186.581 140.649 185.625 145.855L187.592 146.216C186.681 151.178 185.905 156.257 185.264 161.45L183.279 161.205C182.655 166.268 182.159 171.435 181.791 176.707L183.786 176.846C183.435 181.883 183.201 187.018 183.085 192.247L181.086 192.203C181.029 194.779 181 197.378 181 200C181 202.626 181.029 205.23 181.086 207.811L183.085 207.767C183.201 213.005 183.436 218.149 183.788 223.197L181.793 223.337C182.162 228.616 182.659 233.793 183.285 238.866L185.27 238.621C185.911 243.822 186.688 248.911 187.6 253.884L185.633 254.245C186.59 259.459 187.694 264.55 188.947 269.515L190.886 269.026C192.168 274.109 193.606 279.055 195.199 283.863L193.3 284.492C194.965 289.519 196.8 294.399 198.803 299.127L200.644 298.347C202.685 303.165 204.902 307.821 207.294 312.314L205.529 313.254C208.009 317.911 210.677 322.395 213.532 326.703L215.199 325.598C218.069 329.928 221.129 334.076 224.379 338.037L222.833 339.305C226.16 343.359 229.683 347.22 233.402 350.884L234.806 349.459C238.472 353.071 242.331 356.488 246.382 359.707L245.137 361.273C249.202 364.502 253.457 367.534 257.9 370.364L258.975 368.677C263.279 371.417 267.763 373.967 272.428 376.321L271.527 378.106C276.117 380.423 280.876 382.552 285.805 384.49L286.537 382.628C291.251 384.482 296.124 386.159 301.154 387.658L300.583 389.575C305.044 390.904 309.625 392.093 314.327 393.14V402.326L303.878 404.017L304.197 405.991L287.565 408.683L287.245 406.709L278.929 408.055L278.828 408.071L278.73 408.098L269.81 410.493L270.329 412.424L252.489 417.215L251.97 415.283L234.131 420.073L234.649 422.005L216.809 426.795L216.291 424.863L207.371 427.258C205.915 427.649 204.468 428.073 203.032 428.529L203.638 430.436C200.822 431.33 198.048 432.353 195.325 433.499L194.549 431.656C193.16 432.241 191.784 432.857 190.423 433.505L180.95 438.01L181.809 439.816L162.864 448.825L162.005 447.019L152.533 451.524C150.582 452.452 148.663 453.443 146.779 454.494L147.753 456.241C144.057 458.303 140.499 460.604 137.102 463.128L135.909 461.523C134.177 462.809 132.486 464.153 130.839 465.552L123.075 472.146L124.369 473.67L108.84 486.858L107.546 485.334L99.7813 491.928C98.4185 493.085 97.0879 494.278 95.7907 495.506L97.1655 496.958C94.6214 499.366 92.2089 501.909 89.9384 504.576L88.4155 503.28C87.2577 504.64 86.1362 506.032 85.0522 507.453L78.585 515.936L80.1754 517.148L67.2411 534.113L65.6506 532.901L59.1834 541.383C58.0798 542.831 57.0166 544.308 55.9951 545.812L57.6496 546.935C55.646 549.886 53.8057 552.943 52.137 556.095L50.3695 555.159C49.5186 556.766 48.7115 558.397 47.9491 560.05L45.5793 565.188L47.3954 566.026L42.6558 576.302L40.8397 575.464L36.1001 585.741L37.9162 586.578L33.1766 596.855L31.3605 596.017L28.9907 601.155L28.9554 601.232L28.9267 601.311L25.8058 609.915L27.6859 610.597L21.4442 627.806L19.564 627.124L13.3222 644.333L15.2024 645.015L8.9606 662.224L7.08046 661.542L3.95957 670.146C3.63577 671.039 3.35147 671.944 3.10715 672.859L5.03942 673.375C4.57979 675.096 4.27084 676.854 4.11607 678.628L2.12364 678.455C2.04137 679.398 2 680.346 2 681.295C2 683.477 2.21398 685.611 2.62271 687.677L4.58466 687.288C5.38187 691.317 6.96729 695.062 9.17356 698.357L7.51178 699.469C9.89955 703.035 12.9698 706.104 16.5362 708.491L17.6486 706.829C20.9435 709.034 24.689 710.619 28.7178 711.416L28.3298 713.378C30.3952 713.786 32.529 714 34.7108 714H42.2716V712H57.3933V714H72.515V712H87.6367V714H102.758V712H117.88V714H133.002V712H148.123V714H163.245V712H178.367V714H193.488V712H208.61V714H223.732V712H238.854V714H253.975V712H269.097V714H284.219V712H299.34V714H314.462V712H329.584V714H344.705V712H359.827V714H374.949V712H390.07V714H405.192V712H420.314V714H435.435V712H450.557V714H465.679V712H480.8V714H495.922V712H511.044V714H526.165V712H541.287V714H556.409V712H571.53V714H586.652V712H601.774V714H616.896V712H632.017V714H647.139V712H662.261V714H677.382V712H692.504V714H700.065C702.423 714 704.752 713.789 707.021 713.385L706.67 711.416C711.135 710.621 715.352 709.039 719.048 706.817L720.078 708.531C724.199 706.055 727.741 702.808 730.342 698.955L728.684 697.836C731.144 694.194 732.678 689.998 732.955 685.433L734.951 685.554C735.091 683.251 734.934 680.872 734.449 678.437L734.447 678.425L734.444 678.412L732.676 670.071L730.72 670.485L727.184 653.802L729.14 653.387L727.372 645.046L727.355 644.966L727.332 644.887L724.83 636.521L722.914 637.094L717.911 620.36L719.828 619.787L717.326 611.421C717.202 611.004 716.996 609.983 716.724 608.405L714.753 608.745C714.449 606.981 714.089 604.699 713.699 602.194L715.675 601.886C715.602 601.421 715.529 600.947 715.454 600.466C715.359 599.855 715.262 599.233 715.165 598.608C715.026 597.719 714.638 596.333 714.138 594.726C713.623 593.075 712.948 591.062 712.182 588.855L710.293 589.511C708.577 584.566 706.38 578.569 704.471 573.356C704.171 572.537 703.878 571.737 703.594 570.963L705.473 570.276C703.863 565.876 702.616 562.432 702.219 561.108C702.161 560.914 702.094 560.724 702.017 560.537L700.167 561.297C700.063 561.044 699.935 560.801 699.784 560.574L701.451 559.469C701.339 559.301 701.22 559.138 701.092 558.981L695.957 552.67L694.406 553.933L684.135 541.311L685.687 540.049L680.625 533.828C679.508 532.077 677.899 529.897 675.973 527.463L674.405 528.704C671.628 525.195 668.11 521.064 664.301 516.799L665.793 515.467C662.361 511.623 658.694 507.671 655.116 503.962L653.677 505.351C649.706 501.235 645.847 497.421 642.55 494.396L643.902 492.922C641.598 490.81 639.523 489.039 637.842 487.801L634.548 484.969L633.244 486.485L626.542 480.721L627.846 479.204L624.494 476.322L624.386 476.229L624.266 476.153L619.755 473.275L618.679 474.961L609.657 469.205L610.733 467.519L606.276 464.675C604.556 463.417 602.798 462.215 601.004 461.072L599.929 462.759C596.374 460.492 592.676 458.459 588.858 456.671L589.706 454.86C587.76 453.949 585.784 453.1 583.78 452.315L576.538 449.48L575.809 451.342L561.325 445.671L562.054 443.809L547.57 438.138L546.841 440L532.357 434.33L533.086 432.467L525.844 429.632Z" stroke="white" stroke-width="4" stroke-dasharray="15 15"/>
</svg>
